<svg width="70" height="70" viewBox="0 0 70 70" fill="none" xmlns="http://www.w3.org/2000/svg">
<path d="M35 0.569824C28.1766 0.569824 21.5063 2.59321 15.8328 6.38412C10.1593 10.175 5.73739 15.5632 3.12617 21.8672C0.514948 28.1713 -0.168267 35.1081 1.16292 41.8004C2.49411 48.4928 5.77992 54.6401 10.6048 59.465C15.4297 64.2899 21.5771 67.5757 28.2694 68.9069C34.9617 70.2381 41.8985 69.5549 48.2026 66.9436C54.5066 64.3324 59.8948 59.9105 63.6857 54.237C67.4766 48.5635 69.5 41.8933 69.5 35.0698C69.5 25.9198 65.8652 17.1446 59.3952 10.6746C52.9252 4.20463 44.15 0.569824 35 0.569824ZM57.5328 23.4908L29.1997 51.8023L12.4672 35.0698C11.8953 34.4979 11.5741 33.7223 11.5741 32.9136C11.5741 32.1048 11.8953 31.3292 12.4672 30.7573C13.0391 30.1854 13.8147 29.8642 14.6234 29.8642C15.4322 29.8642 16.2078 30.1854 16.7797 30.7573L29.2428 43.2204L53.2634 19.2214C53.5466 18.9382 53.8828 18.7136 54.2527 18.5604C54.6227 18.4071 55.0192 18.3282 55.4197 18.3282C55.8201 18.3282 56.2167 18.4071 56.5866 18.5604C56.9566 18.7136 57.2928 18.9382 57.5759 19.2214C57.8591 19.5045 58.0837 19.8407 58.237 20.2107C58.3902 20.5806 58.4691 20.9772 58.4691 21.3776C58.4691 21.7781 58.3902 22.1746 58.237 22.5446C58.0837 22.9146 57.8591 23.2507 57.5759 23.5339L57.5328 23.4908Z" fill="#095EDC"/>
</svg>
