<svg width="62" height="60" viewBox="0 0 62 60" fill="none" xmlns="http://www.w3.org/2000/svg">
<path d="M42.3092 37.7727L43.6504 29.0811H35.2607V23.441C35.2607 21.0628 36.4327 18.7452 40.1905 18.7452H44.0049V11.3456C44.0049 11.3456 40.5431 10.7583 37.2334 10.7583C30.3238 10.7583 25.8076 14.9209 25.8076 22.4567V29.0811H18.127V37.7727H25.8076V58.784C27.3712 59.0276 28.9515 59.1497 30.5342 59.1493C32.1169 59.1497 33.6972 59.0276 35.2607 58.784V37.7727H42.3092Z" fill="white"/>
<path d="M61.375 30.2557C61.375 13.6496 47.8315 0.1875 31.125 0.1875C14.4185 0.1875 0.875 13.6496 0.875 30.2557C0.875 45.2635 11.937 57.703 26.3984 59.9586V38.9473H18.7178V30.2557H26.3984V23.6313C26.3984 16.0954 30.9147 11.9329 37.8244 11.9329C41.134 11.9329 44.5957 12.5202 44.5957 12.5202V19.9197H40.7814C37.0235 19.9197 35.8516 22.2376 35.8516 24.6155V30.2557H44.2412L42.9 38.9473H35.8516V59.9586C50.313 57.703 61.375 45.2637 61.375 30.2557Z" fill="#1877F2"/>
</svg>
