<svg width="255" height="48" viewBox="0 0 255 48" fill="none" xmlns="http://www.w3.org/2000/svg">
<path d="M9.79611 47.9217L13.7985 30.2863L0.375 18.4247L18.1089 16.8557L25.0054 0.224365L31.9019 16.8557L49.6357 18.4247L36.2122 30.2863L40.2146 47.9217L25.0054 38.5705L9.79611 47.9217Z" fill="#D3C64F"/>
<path d="M161.016 47.9217L165.018 30.2863L151.595 18.4247L169.329 16.8557L176.225 0.224365L183.122 16.8557L200.855 18.4247L187.432 30.2863L191.434 47.9217L176.225 38.5705L161.016 47.9217Z" fill="#D3C64F"/>
<path d="M215.036 46.8732L218.775 30.3969L218.841 30.1079L218.619 29.9116L206.067 18.8202L222.642 17.3537L222.944 17.327L223.06 17.0472L229.495 1.5297L235.929 17.0472L236.045 17.327L236.347 17.3537L252.922 18.8202L240.37 29.9116L240.148 30.1079L240.214 30.3969L243.953 46.8732L229.756 38.1446L229.495 37.9836L229.233 38.1446L215.036 46.8732Z" stroke="black"/>
<path d="M111.754 47.9217L115.757 30.2863L102.333 18.4247L120.067 16.8557L126.963 0.224365L133.86 16.8557L151.594 18.4247L138.17 30.2863L142.173 47.9217L126.963 38.5705L111.754 47.9217Z" fill="#D3C64F"/>
<path d="M59.0569 47.9217L63.0593 30.2863L49.6357 18.4247L67.3696 16.8557L74.2661 0.224365L81.1626 16.8557L98.8965 18.4247L85.4729 30.2863L89.4753 47.9217L74.2661 38.5705L59.0569 47.9217Z" fill="#D3C64F"/>
</svg>
