<svg width="67" height="68" viewBox="0 0 67 68" fill="none" xmlns="http://www.w3.org/2000/svg">
<path d="M19.162 48.5218L25.0613 46.8201L60.5813 10.8767C60.8615 10.5896 61.0175 10.2038 61.0156 9.80269C61.0137 9.40156 60.8541 9.01726 60.5713 8.73281L58.444 6.58224C58.3065 6.441 58.1423 6.32856 57.9609 6.25147C57.7795 6.17438 57.5846 6.1342 57.3875 6.13327C57.1904 6.13233 56.9951 6.17066 56.813 6.24602C56.6309 6.32138 56.4656 6.43226 56.3268 6.57219L20.9006 42.4218L19.162 48.5218ZM62.655 2.32129L64.7822 4.47521C67.7168 7.44649 67.7436 12.2401 64.8358 15.1812L28.2338 52.2233L15.6244 55.8545C14.8545 56.07 14.0307 55.9712 13.3335 55.58C12.6364 55.1887 12.123 54.5369 11.9059 53.7676C11.7444 53.2144 11.742 52.627 11.8992 52.0726L15.5674 39.2093L52.0723 2.26434C52.7665 1.56543 53.5928 1.01172 54.5032 0.635507C55.4136 0.259292 56.3898 0.0681043 57.3749 0.0730932C58.3599 0.0780822 59.3341 0.279148 60.2407 0.664565C61.1472 1.04998 61.9679 1.61538 62.655 2.32129ZM24.0664 6.18361C25.728 6.18361 27.0747 7.54698 27.0747 9.22858C27.0773 9.6261 27.0016 10.0202 26.8518 10.3885C26.702 10.7567 26.4811 11.0918 26.2017 11.3746C25.9223 11.6574 25.5899 11.8823 25.2235 12.0366C24.8571 12.1908 24.4639 12.2714 24.0664 12.2736H12.0332C8.70999 12.2736 6.01659 15.0003 6.01659 18.3601V54.8931C6.01659 58.2563 8.70999 60.9831 12.0332 60.9831H48.1327C51.4559 60.9831 54.1527 58.2563 54.1527 54.8931V42.7166C54.1527 41.035 55.4994 39.6716 57.161 39.6716C58.8226 39.6716 60.1693 41.035 60.1693 42.7199V54.8931C60.1693 61.6195 54.7791 67.073 48.1327 67.073H12.0332C5.38679 67.073 0 61.6195 0 54.8931V18.3601C0 11.6371 5.38679 6.18361 12.0332 6.18361H24.0664Z" fill="#095EDC"/>
</svg>
