<svg width="39" height="40" viewBox="0 0 39 40" fill="none" xmlns="http://www.w3.org/2000/svg">
<path d="M37.1224 26.7325L27.9359 22.616L27.9106 22.6043C27.4337 22.4003 26.9134 22.3185 26.3969 22.3661C25.8804 22.4138 25.3839 22.5895 24.9524 22.8773C24.9016 22.9109 24.8528 22.9473 24.8061 22.9865L20.0598 27.0328C17.0529 25.5722 13.9485 22.4912 12.4879 19.5233L16.54 14.7048C16.579 14.656 16.6161 14.6073 16.6512 14.5546C16.9328 14.1243 17.1037 13.6309 17.1486 13.1186C17.1935 12.6062 17.1111 12.0907 16.9086 11.6179V11.5945L12.7804 2.39236C12.5127 1.77472 12.0525 1.26021 11.4684 0.925634C10.8843 0.591056 10.2077 0.454358 9.53948 0.535945C6.89716 0.883647 4.47175 2.18131 2.71626 4.18657C0.960764 6.19182 -0.00475985 8.76754 1.7645e-05 11.4326C1.7645e-05 26.9158 12.5971 39.5129 28.0802 39.5129C30.7453 39.5177 33.321 38.5522 35.3263 36.7967C37.3315 35.0412 38.6292 32.6158 38.9769 29.9734C39.0586 29.3055 38.9222 28.629 38.588 28.0449C38.2538 27.4608 37.7397 27.0005 37.1224 26.7325ZM28.0802 36.3929C21.4626 36.3857 15.1181 33.7536 10.4387 29.0742C5.75931 24.3948 3.12727 18.0503 3.12004 11.4326C3.1127 9.52844 3.79874 7.68666 5.05004 6.25127C6.30133 4.81588 8.03232 3.88504 9.91974 3.63257C9.91897 3.64036 9.91897 3.64819 9.91974 3.65598L14.0148 12.8211L9.98409 17.6454C9.94318 17.6925 9.90601 17.7427 9.87294 17.7956C9.57949 18.2459 9.40734 18.7643 9.37318 19.3007C9.33901 19.8371 9.44399 20.3732 9.67794 20.8571C11.4446 24.4705 15.0853 28.0839 18.7377 29.8486C19.2251 30.0804 19.7644 30.1817 20.3027 30.1428C20.841 30.1038 21.36 29.9259 21.809 29.6263C21.859 29.5926 21.9072 29.5561 21.9533 29.5171L26.6938 25.4728L35.8588 29.5776H35.8803C35.6309 31.4677 34.7014 33.2021 33.2658 34.4565C31.8301 35.7109 29.9867 36.3993 28.0802 36.3929Z" fill="black"/>
</svg>
