<svg width="42" height="42" viewBox="0 0 42 42" fill="none" xmlns="http://www.w3.org/2000/svg">
<path d="M21 0C16.8466 0 12.7865 1.23163 9.33303 3.53914C5.8796 5.84665 3.18798 9.1264 1.59854 12.9636C0.00909897 16.8009 -0.406771 21.0233 0.403518 25.0969C1.21381 29.1705 3.21386 32.9123 6.15077 35.8492C9.08767 38.7861 12.8295 40.7862 16.9031 41.5965C20.9767 42.4068 25.1991 41.9909 29.0364 40.4015C32.8736 38.812 36.1534 36.1204 38.4609 32.667C40.7684 29.2135 42 25.1534 42 21C41.9941 15.4323 39.7797 10.0942 35.8427 6.15725C31.9058 2.22026 26.5677 0.00587963 21 0ZM21 38.7692C17.4856 38.7692 14.0501 37.7271 11.128 35.7746C8.20582 33.8221 5.92829 31.0469 4.58338 27.8C3.23847 24.5531 2.88658 20.9803 3.57221 17.5334C4.25784 14.0865 5.95019 10.9203 8.43526 8.43526C10.9203 5.95018 14.0865 4.25783 17.5334 3.5722C20.9803 2.88657 24.5531 3.23846 27.8 4.58337C31.0469 5.92828 33.8221 8.20581 35.7746 11.1279C37.7271 14.0501 38.7692 17.4856 38.7692 21C38.7639 25.711 36.8901 30.2276 33.5588 33.5588C30.2276 36.8901 25.7111 38.7639 21 38.7692ZM14.5385 21C14.5385 22.3562 14.9652 23.6779 15.7581 24.7781C16.5511 25.8783 17.6701 26.7011 18.9567 27.1299C20.2433 27.5588 21.6321 27.572 22.9266 27.1676C24.2211 26.7633 25.3555 25.9618 26.1692 24.8769C26.4266 24.5342 26.8095 24.3077 27.2338 24.2473C27.6581 24.1869 28.089 24.2975 28.4318 24.5548C28.7745 24.8122 29.001 25.1951 29.0614 25.6194C29.1218 26.0437 29.0112 26.4747 28.7538 26.8174C27.533 28.4443 25.8313 29.6459 23.8896 30.252C21.948 30.8581 19.8649 30.838 17.9353 30.1945C16.0058 29.5511 14.3276 28.3168 13.1383 26.6667C11.9491 25.0165 11.3092 23.034 11.3092 21C11.3092 18.966 11.9491 16.9835 13.1383 15.3333C14.3276 13.6831 16.0058 12.4489 17.9353 11.8055C19.8649 11.162 21.948 11.1419 23.8896 11.748C25.8313 12.3541 27.533 13.5557 28.7538 15.1826C28.8813 15.3523 28.974 15.5454 29.0268 15.751C29.0795 15.9565 29.0913 16.1705 29.0614 16.3806C29.0315 16.5907 28.9605 16.7928 28.8525 16.9755C28.7444 17.1581 28.6015 17.3177 28.4318 17.4451C28.2621 17.5726 28.0689 17.6653 27.8634 17.7181C27.6578 17.7708 27.4439 17.7826 27.2338 17.7527C27.0237 17.7228 26.8216 17.6518 26.6389 17.5438C26.4562 17.4357 26.2966 17.2928 26.1692 17.1231C25.3555 16.0381 24.2211 15.2367 22.9266 14.8324C21.6321 14.428 20.2433 14.4412 18.9567 14.87C17.6701 15.2989 16.5511 16.1217 15.7581 17.2219C14.9652 18.322 14.5385 19.6438 14.5385 21Z" fill="#A9A9A9"/>
</svg>
