<svg width="21" height="38" viewBox="0 0 21 38" fill="none" xmlns="http://www.w3.org/2000/svg">
<path d="M15.1552 0C12.6173 0 10.1834 1.0146 8.38889 2.8206C6.59436 4.6266 5.58621 7.07607 5.58621 9.63014V14.9918H0.465517C0.208965 14.9918 0 15.2 0 15.4603V22.5397C0 22.7979 0.206896 23.0082 0.465517 23.0082H5.58621V37.5315C5.58621 37.7897 5.7931 38 6.05172 38H13.0862C13.3428 38 13.5517 37.7918 13.5517 37.5315V23.0082H18.7179C18.931 23.0082 19.1172 22.8625 19.169 22.6542L20.9276 15.5748C20.9449 15.5057 20.9463 15.4336 20.9317 15.3639C20.9172 15.2941 20.887 15.2287 20.8435 15.1725C20.8 15.1162 20.7444 15.0708 20.6808 15.0394C20.6172 15.0081 20.5473 14.9918 20.4766 14.9918H13.5517V9.63014C13.5517 9.41822 13.5932 9.20838 13.6738 9.0126C13.7544 8.81682 13.8725 8.63892 14.0214 8.48908C14.1703 8.33923 14.347 8.22037 14.5416 8.13927C14.7361 8.05818 14.9446 8.01644 15.1552 8.01644H20.5345C20.791 8.01644 21 7.80822 21 7.54795V0.468493C21 0.210301 20.7931 0 20.5345 0H15.1552Z" fill="black"/>
</svg>
