<svg width="40" height="33" viewBox="0 0 40 33" fill="none" xmlns="http://www.w3.org/2000/svg">
<path d="M1 5.35899C1 4.20291 1.44484 3.09419 2.23666 2.27672C3.02848 1.45925 4.10242 1 5.22222 1H34.7778C35.8976 1 36.9715 1.45925 37.7633 2.27672C38.5552 3.09419 39 4.20291 39 5.35899V27.1539C39 28.31 38.5552 29.4187 37.7633 30.2362C36.9715 31.0537 35.8976 31.5129 34.7778 31.5129H5.22222C4.10242 31.5129 3.02848 31.0537 2.23666 30.2362C1.44484 29.4187 1 28.31 1 27.1539V5.35899Z" stroke="black" stroke-width="2" stroke-linecap="round" stroke-linejoin="round"/>
<path d="M1 5.35889L20 18.4359L39 5.35889" stroke="black" stroke-width="2" stroke-linecap="round" stroke-linejoin="round"/>
</svg>
